<?xml version="1.0"?>
<svg width="200" height="200" xmlns="http://www.w3.org/2000/svg" xmlns:svg="http://www.w3.org/2000/svg">
 <g class="layer">
  <title>Layer 1</title>
  <path d="m84.245046,136.316531c0,0 -6.067,35.116 24.269,39.345c27.21,3.309 26.659,-30.887 26.659,-30.887l-5.516,-15.26c0,0 25.372,15.53 43.941,-7.403c9.744,-22.198 -1.471,-38.18 -8.825,-41.128c-7.354,-2.948 -25.372,-6.258 -27.946,-2.213c6.259,-7.174 17.098,-32.542 -2.39,-46.147c-19.305,-13.605 -47.434,-0.519 -47.434,22.906c-13.956,-14.835 -28.681,-22.906 -48.354,-6.175c-18.202,15.812 -2.574,47.751 17.65,48.788c-19.193,9.607 -35.852,25.673 -18.937,46.449c16.547,19.671 46.516,-3.862 46.883,-8.275z" fill="#FFB3CC" id="svg_4"/>
  <ellipse cx="643.791282" cy="60.645828" fill="#FFF5F9" id="svg_3" rx="25.274" ry="25.274" transform="matrix(0.2273 -0.9738 0.9738 0.2273 -106.615 711.098)"/>
  <path d="m154.108046,75.610531c-4.283,-0.634 -9.321,-0.364 -14.402,0.729c3.074,-3.8 5.421,-7.842 6.784,-11.743c2.614,-7.48 2.019,-15.574 -1.677,-22.793c-3.681,-7.19 -10.003,-12.652 -17.799,-15.376c-16.129,-5.636 -33.626,2.317 -39.013,17.727c-0.866,2.479 -1.461,5.275 -1.766,8.266c-2.113,-3.092 -4.471,-5.742 -6.966,-7.809c-12.573,-10.413 -31.666,-8.181 -42.562,4.975c-10.896,13.156 -9.532,32.33 3.04,42.743c3.235,2.68 7.385,4.948 12.038,6.616c-2.526,0.808 -4.864,1.787 -6.927,2.908c-6.924,3.763 -12.09,9.79 -14.544,16.971c-2.472,7.232 -1.903,14.765 1.601,21.211c7.204,13.257 24.736,17.702 39.08,9.907c3.742,-2.034 7.602,-5.111 11.067,-8.772c-0.367,4.113 -0.24,8.083 0.391,11.56c2.616,14.416 14.523,24.654 27.671,24.654c1.501,0 3.02,-0.134 4.541,-0.41c7.22,-1.309 13.446,-5.587 17.532,-12.046c4.057,-6.412 5.516,-14.215 4.11,-21.969c-0.58,-3.196 -1.713,-6.655 -3.288,-10.095c4.055,2.071 8.18,3.468 11.996,4.034c7.836,1.163 15.676,-0.942 22.072,-5.928c6.371,-4.966 10.547,-12.201 11.76,-20.371c2.506,-16.897 -8.592,-32.593 -24.739,-34.989zm21.344,34.485c-1.082,7.294 -4.802,13.747 -10.475,18.169c-5.648,4.403 -12.562,6.266 -19.459,5.24c-5.008,-0.743 -10.649,-3.092 -15.886,-6.613c-0.668,-0.45 -1.559,-0.373 -2.14,0.181c-0.583,0.555 -0.702,1.439 -0.286,2.128c2.875,4.77 4.908,9.874 5.724,14.372c1.253,6.906 -0.037,13.839 -3.633,19.523c-3.567,5.637 -8.981,9.368 -15.245,10.505c-12.994,2.356 -25.647,-7.281 -28.223,-21.481c-0.859,-4.734 -0.693,-10.513 0.469,-16.271c0.159,-0.785 -0.247,-1.574 -0.977,-1.903c-0.227,-0.102 -0.467,-0.151 -0.704,-0.151c-0.524,0 -1.036,0.241 -1.368,0.68c-4.008,5.295 -9.072,9.835 -13.893,12.455c-12.682,6.892 -28.124,3.064 -34.427,-8.531c-3.04,-5.593 -3.526,-12.15 -1.368,-18.463c2.175,-6.364 6.769,-11.714 12.936,-15.066c3.371,-1.832 7.58,-3.257 12.172,-4.12c0.8,-0.15 1.384,-0.842 1.398,-1.656c0.014,-0.814 -0.546,-1.526 -1.34,-1.704c-6.527,-1.462 -12.648,-4.269 -16.792,-7.701c-11.115,-9.206 -12.275,-26.213 -2.586,-37.912c9.689,-11.699 26.615,-13.726 37.731,-4.521c3.363,2.785 6.603,6.969 9.123,11.779c0.369,0.705 1.176,1.063 1.947,0.866c0.771,-0.198 1.305,-0.901 1.288,-1.697c-0.1,-4.792 0.524,-9.258 1.802,-12.915c4.762,-13.625 20.303,-20.629 34.641,-15.62c6.961,2.433 12.6,7.299 15.878,13.701c3.264,6.374 3.794,13.512 1.492,20.097c-1.744,4.991 -5.302,10.279 -10.016,14.891c-0.573,0.561 -0.682,1.443 -0.261,2.126c0.421,0.684 1.259,0.984 2.017,0.724c6.426,-2.2 13.21,-3.003 18.614,-2.2c14.275,2.115 24.076,16.063 21.847,31.088z" fill="#EC6C8D" id="svg_2"/>
  <path d="m136.884046,94.000531c-1.249,0.43 -2.135,1.426 -2.49,2.6l-8.636,-0.357c-0.409,-5.659 -2.54,-10.802 -5.839,-14.962l3.266,-2.287c0.517,-0.362 0.643,-1.075 0.28,-1.593c-0.362,-0.517 -1.073,-0.643 -1.593,-0.28l-3.459,2.423c-2.871,-3.057 -6.42,-5.459 -10.405,-6.942l3.08,-9.176c0.047,-0.001 0.091,0.009 0.138,0.007c2.181,-0.106 3.863,-1.961 3.756,-4.141c-0.106,-2.181 -1.961,-3.863 -4.141,-3.756s-3.863,1.961 -3.756,4.141c0.064,1.319 0.774,2.447 1.802,3.116l-3.057,9.107c-2.744,-0.765 -5.65,-1.117 -8.647,-0.971c-1.323,0.065 -2.616,0.231 -3.88,0.476l-0.954,-3.976c-0.147,-0.614 -0.763,-0.99 -1.379,-0.846c-0.614,0.147 -0.992,0.765 -0.845,1.379l0.952,3.971c-0.485,0.137 -0.964,0.288 -1.438,0.451l-2.354,-5.199c-0.261,-0.575 -0.939,-0.83 -1.514,-0.57c-0.575,0.261 -0.83,0.938 -0.57,1.514l2.302,5.086c-3.871,1.711 -7.26,4.291 -9.932,7.481l-7.326,-5.663c0.015,-0.044 0.039,-0.083 0.052,-0.129c0.615,-2.095 -0.585,-4.292 -2.68,-4.907c-2.095,-0.615 -4.292,0.585 -4.907,2.68c-0.615,2.095 0.585,4.292 2.68,4.907c1.267,0.372 2.566,0.072 3.535,-0.681l7.253,5.607c-2.48,3.517 -4.139,7.635 -4.736,12.064l-4.146,-0.031c-0.003,0 -0.006,0 -0.009,0c-0.628,0 -1.139,0.507 -1.144,1.135c-0.005,0.632 0.503,1.148 1.135,1.153l3.954,0.03c-0.044,0.888 -0.057,1.784 -0.013,2.691c0.2,4.101 1.305,7.946 3.102,11.36l-8.203,4.426c-0.035,-0.032 -0.06,-0.069 -0.096,-0.1c-1.665,-1.412 -4.16,-1.207 -5.572,0.458c-1.412,1.665 -1.207,4.16 0.458,5.572c1.665,1.412 4.16,1.207 5.573,-0.458c0.854,-1.007 1.107,-2.316 0.813,-3.506l8.18,-4.414c0.998,1.561 2.153,3.008 3.435,4.33l-4.232,3.878c-0.466,0.427 -0.497,1.15 -0.07,1.616c0.226,0.246 0.534,0.371 0.844,0.371c0.276,0 0.553,-0.099 0.772,-0.301l4.355,-3.991c0.693,0.605 1.408,1.185 2.16,1.719l-3.578,3.717c-0.438,0.454 -0.424,1.179 0.031,1.617c0.222,0.214 0.508,0.32 0.793,0.32c0.3,0 0.599,-0.117 0.824,-0.351l3.894,-4.044c4.429,2.609 9.633,4.011 15.14,3.742c1.487,-0.072 2.938,-0.267 4.35,-0.567l2.533,8.654c-0.038,0.027 -0.081,0.045 -0.118,0.073c-1.729,1.334 -2.048,3.817 -0.714,5.545c1.334,1.729 3.817,2.048 5.545,0.714c1.729,-1.334 2.049,-3.817 0.715,-5.545c-0.807,-1.045 -2.034,-1.565 -3.259,-1.526l-2.483,-8.484c4.054,-1.224 7.687,-3.372 10.693,-6.173l3.318,2.91c0.217,0.19 0.486,0.284 0.753,0.284c0.318,0 0.634,-0.132 0.861,-0.39c0.417,-0.475 0.369,-1.197 -0.106,-1.614l-3.213,-2.817c0.302,-0.332 0.587,-0.678 0.872,-1.025l3.39,2.348c0.198,0.138 0.426,0.204 0.65,0.204c0.362,0 0.719,-0.172 0.941,-0.492c0.36,-0.519 0.231,-1.232 -0.289,-1.591l-3.312,-2.295c3.008,-4.346 4.799,-9.577 4.861,-15.186l8.568,0.354c0.014,0.045 0.016,0.09 0.032,0.135c0.71,2.065 2.96,3.163 5.025,2.453c2.065,-0.71 3.163,-2.96 2.453,-5.025c-0.71,-2.069 -2.959,-3.167 -5.024,-2.457zm-29.97,-18.139c8.354,3.153 14.536,10.875 15.369,20.238l-7.98,-0.33c-0.88,-5.699 -4.764,-10.344 -9.911,-12.392l2.522,-7.516zm-9.563,-1.507c2.557,-0.125 5.038,0.17 7.385,0.806l-2.526,7.525c-1.432,-0.342 -2.931,-0.501 -4.474,-0.426c-4.47,0.218 -8.421,2.268 -11.177,5.382l-6.254,-4.835c4.131,-4.878 10.173,-8.117 17.046,-8.452zm-22.701,25.028c-0.267,-5.466 1.355,-10.584 4.261,-14.763l6.265,4.843c-1.798,2.732 -2.793,6.025 -2.622,9.535c0.115,2.352 0.748,4.553 1.763,6.521l-6.956,3.753c-1.561,-2.977 -2.537,-6.317 -2.711,-9.889zm25.028,22.7c-8.772,0.428 -16.665,-3.97 -21.157,-10.837l6.99,-3.772c3.057,4.28 8.15,6.979 13.782,6.705c0.576,-0.028 1.143,-0.09 1.701,-0.177l2.228,7.613c-1.157,0.232 -2.332,0.409 -3.544,0.468zm5.764,-1.025l-2.22,-7.588c6.611,-2.043 11.322,-8.235 11.252,-15.404l7.903,0.327c-0.075,10.589 -7.116,19.684 -16.935,22.665z" fill="#EC6C8D" id="svg_1"/>
 </g>
</svg>